<svg width="100%" height="100%" viewBox="0 0 2667 2000" version="1.1" xmlns="http://www.w3.org/2000/svg" style="fill:var(--secondary-color);fill-rule:evenodd;clip-rule:evenodd;stroke-linejoin:round;stroke-miterlimit:2;"><path id="question" d="M1235.574,1413.06c-0.716,-25.783 -1.074,-45.12 -1.074,-58.011c0,-75.916 10.743,-141.447 32.228,-196.593c15.756,-41.539 41.181,-83.436 76.274,-125.69c25.783,-30.796 72.156,-75.737 139.119,-134.822c66.963,-59.085 110.472,-106.174 130.525,-141.267c20.053,-35.093 30.08,-73.409 30.08,-114.948c0,-75.199 -29.364,-141.267 -88.091,-198.204c-58.727,-56.937 -130.704,-85.405 -215.93,-85.405c-82.361,0 -151.115,25.783 -206.261,77.348c-55.146,51.565 -91.314,132.136 -108.502,241.712l-198.741,-23.634c17.905,-146.818 71.081,-259.259 159.53,-337.323c88.449,-78.064 205.366,-117.096 350.752,-117.096c153.98,0 276.806,41.897 368.477,125.69c91.672,83.794 137.508,185.134 137.508,304.021c0,68.754 -16.114,132.136 -48.342,190.147c-32.228,58.011 -95.253,128.555 -189.073,211.633c-63.024,55.862 -104.205,97.043 -123.542,123.542c-19.337,26.499 -33.661,56.937 -42.971,91.314c-9.31,34.377 -14.682,90.239 -16.114,167.587l-185.85,0Zm-11.817,387.814l0,-220.227l220.227,0l0,220.227l-220.227,0Z" style="fill-rule:nonzero;"/></svg>